<svg xmlns="http://www.w3.org/2000/svg" viewBox="0 0 800 600" role="img" aria-label="Financial">
  <defs>
    <linearGradient id="bg" x1="0" y1="0" x2="800" y2="600" gradientUnits="userSpaceOnUse">
      <stop offset="0" stop-color="#1a1510"/>
      <stop offset="0.45" stop-color="#0a0806"/>
      <stop offset="1" stop-color="#000000"/>
    </linearGradient>
    <radialGradient id="glow" cx="50%" cy="40%" r="50%">
      <stop offset="0" stop-color="#d4a44a" stop-opacity="0.22"/>
      <stop offset="1" stop-color="#d4a44a" stop-opacity="0"/>
    </radialGradient>
  </defs>
  <rect width="800" height="600" fill="url(#bg)"/>
  <rect width="800" height="600" fill="url(#glow)"/>
  <circle cx="120" cy="100" r="80" fill="#d4a44a" opacity="0.06"/>
  <circle cx="700" cy="520" r="100" fill="#b8863b" opacity="0.08"/>
  <rect x="240" y="180" width="320" height="220" rx="16" fill="#1a1510" stroke="#e0b954" stroke-width="2"/>
<path d="M280 340 L340 280 L400 300 L460 230 L520 250" fill="none" stroke="#d4a44a" stroke-width="3" stroke-linecap="round" stroke-linejoin="round"/>
<circle cx="280" cy="340" r="5" fill="#ecd06a"/>
<circle cx="340" cy="280" r="5" fill="#ecd06a"/>
<circle cx="400" cy="300" r="5" fill="#ecd06a"/>
<circle cx="460" cy="230" r="5" fill="#ecd06a"/>
<circle cx="520" cy="250" r="5" fill="#ecd06a"/>
<rect x="280" y="360" width="40" height="20" rx="3" fill="#654325"/>
<rect x="340" y="350" width="40" height="30" rx="3" fill="#96682f"/>
<rect x="400" y="340" width="40" height="40" rx="3" fill="#b8863b"/>
<rect x="460" y="320" width="40" height="60" rx="3" fill="#d4a44a"/>
  <text x="400" y="520" text-anchor="middle" fill="#ecd06a" font-family="Georgia, serif" font-size="22" letter-spacing="2">Financial</text>
  <text x="400" y="548" text-anchor="middle" fill="#96682f" font-family="sans-serif" font-size="12" letter-spacing="3">SITESYNC</text>
</svg>
